<?xml version="1.0" encoding="UTF-8"?>
<svg width="350px" height="95px" viewBox="0 0 350 95" version="1.1" xmlns="http://www.w3.org/2000/svg" xmlns:xlink="http://www.w3.org/1999/xlink">
    <title>Innovaccer-Logo</title>
    <g id="Innovaccer-Logo" stroke="none" stroke-width="1" fill="none" fill-rule="evenodd">
        <g id="innovaccer-logo-black" transform="translate(0.000000, 36.000000)" fill-rule="nonzero">
            <path d="M60.0014757,9.3926017 C60.0014757,6.31952517 62.6680915,4.00368999 65.8394016,4.00368999 C67.3246237,3.9496262 68.7695316,4.49149128 69.8503931,5.50788008 C70.9246786,6.51790852 71.5409465,7.91952559 71.5577946,9.39113133 C71.4840089,12.4362708 68.9251202,14.8462098 65.8394016,14.780043 C62.6666158,14.780043 60,12.3392263 60,9.39113133 L60.0014757,9.3926017 Z M61.1451543,19.2293873 L70.5410274,19.2293873 L70.5410274,48.4353773 L61.1451543,48.4353773 L61.1451543,19.2293873 Z M104.258148,32.7038722 L104.258148,48.4353773 L94.8607994,48.4353773 L94.8607994,33.7713619 C94.8607994,29.2573213 92.0672722,27.5634532 89.7135079,27.5634532 C87.1738035,27.5634532 84.0024934,28.8823765 84.0024934,33.7713619 L84.0024934,48.433907 L74.6051446,48.433907 L74.6051446,19.2293873 L84.0010177,19.2293873 L84.0010177,24.4345026 C85.0192606,20.2748215 89.7135079,18.4941767 92.5129379,18.4941767 C100.381447,18.4809682 104.258148,23.7448983 104.258148,32.7038722 Z M137.594535,32.7038722 L137.594535,48.4353773 L128.197186,48.4353773 L128.197186,33.7713619 C128.197186,29.2573213 125.405134,27.5634532 123.05137,27.5634532 C120.51019,27.5634532 117.33888,28.8823765 117.33888,33.7713619 L117.33888,48.433907 L107.941531,48.433907 L107.941531,19.2293873 L117.33888,19.2293873 L117.33888,24.4345026 C118.355647,20.2748215 123.049894,18.4941767 125.843422,18.4941767 C133.717833,18.4809682 137.594535,23.7448983 137.594535,32.7038722 L137.594535,32.7038722 Z M139.563138,33.7728323 C139.563138,24.4991989 147.183726,18.4809682 155.629239,18.4809682 C164.074753,18.4809682 171.786836,24.475673 171.786836,33.7728323 C171.786836,43.0699916 164.105743,49 155.660229,49 C147.214716,49 139.563138,42.9817693 139.563138,33.7728323 Z M162.166654,33.7728323 C162.166654,29.7631291 159.247691,27.0664677 155.629239,27.0664677 C152.012264,27.0664677 149.085922,29.7631291 149.085922,33.7728323 C149.085922,37.7825355 152.006361,40.4145005 155.629239,40.4145005 C159.253594,40.4145005 162.154848,37.7825355 162.154848,33.7728323 L162.166654,33.7728323 L162.166654,33.7728323 Z M202.745846,19.2308577 L190.171285,48.4353773 L181.978119,48.4353773 L169.407984,19.2293873 L179.642063,19.2293873 L186.120449,36.5885938 L192.530952,19.2293873 L202.745846,19.2293873 L202.745846,19.2308577 Z M233.476121,19.2308577 L233.476121,48.4353773 L224.158461,48.4353773 L224.158461,45.113808 C221.99654,47.8707547 217.992927,49 214.947052,49 C207.586189,49 200.597206,43.2317324 200.597206,33.7728323 C200.597206,24.3154025 207.572908,18.535372 214.935247,18.535372 C217.981121,18.535372 221.984734,19.6631469 224.14518,22.4200936 L224.14518,19.2235058 L233.476121,19.2293873 L233.476121,19.2308577 Z M223.760018,33.7728323 C223.819594,31.0218974 222.193509,28.5115526 219.653105,27.4325902 C217.104831,26.340955 214.147798,26.8819751 212.155001,28.8044468 C210.173394,30.7153365 209.565903,33.639161 210.623209,36.1768898 C211.693862,38.721589 214.201046,40.3699567 216.970257,40.3498042 C220.6743,40.3600968 223.70099,37.4296463 223.760018,33.7728323 L223.760018,33.7728323 Z M235.831361,33.7081359 C235.831361,24.4345026 243.510979,18.4809682 252.14981,18.4809682 C257.860825,18.4809682 262.243696,21.2379149 265.103631,25.3725996 L257.880009,29.8866403 C256.533171,28.1285992 254.447644,27.0879834 252.228023,27.0664677 C247.911559,27.0664677 245.371855,30.0719071 245.371855,33.7081359 C245.371855,37.3428944 247.911559,40.4145005 252.228023,40.4145005 C254.44619,40.3856152 256.528853,39.3458865 257.880009,37.5928576 L265.103631,42.1024871 C262.243696,46.2606978 257.880009,48.9985296 252.14981,48.9985296 C243.510979,48.9985296 235.829886,42.9817693 235.829886,33.7066656 L235.831361,33.7081359 Z M264.718469,33.7081359 C264.718469,24.4345026 272.406941,18.4809682 281.038394,18.4809682 C286.756787,18.4809682 291.139659,21.2379149 293.992214,25.3725996 L286.768593,29.8866403 C285.421173,28.1292992 283.336014,27.0888667 281.116607,27.0664677 C276.800142,27.0664677 274.260438,30.0719071 274.260438,33.7081359 C274.260438,37.3428944 276.798667,40.4145005 281.116607,40.4145005 C283.334774,40.3856152 285.417437,39.3458865 286.768593,37.5928576 L293.992214,42.1024871 C291.139659,46.2606978 286.768593,48.9985296 281.038394,48.9985296 C272.405465,48.9985296 264.718469,42.9817693 264.718469,33.7066656 L264.718469,33.7081359 Z M325.048622,36.5297789 L303.376282,36.5297789 C304.26171,39.2867256 306.74091,40.9144269 310.292955,40.9144269 C313.054369,40.9216289 315.722029,39.9168321 317.788108,38.0913135 L322.603364,44.1110146 C319.678498,47.2473171 314.604992,49 309.583136,49 C300.252194,49 293.583441,42.7979728 293.583441,33.8992842 C293.583441,24.3918618 301.077119,18.4809682 309.583136,18.4809682 C318.089153,18.4809682 325.205048,24.309521 325.205048,33.2082096 C325.234562,34.0227954 325.175534,35.0858741 325.048622,36.5297789 L325.048622,36.5297789 Z M315.837213,31.0747005 C315.778185,28.1942426 313.170598,26.32393 309.817775,26.32393 C306.959316,26.32393 304.2927,27.5766866 303.340865,31.0761709 L315.837213,31.0761709 L315.837213,31.0747005 Z M350,19.3558393 L347.777574,28.1942426 C346.483176,27.4518633 345.015131,27.06285 343.521614,27.0664677 C339.838231,27.0664677 336.792357,30.0719071 336.792357,38.7221029 L336.792357,48.4353773 L327.395008,48.4353773 L327.395008,19.2293873 L336.665445,19.2293873 L336.665445,25.3725996 C338.381701,20.549781 341.933746,18.4809682 345.556624,18.4809682 C347.085644,18.4192926 348.607647,18.7185606 349.998524,19.3543689 L350,19.3558393 Z" id="Shape" fill="#000000"></path>
            <path d="M13.3447853,36.1307726 L0.428806592,55.1069332 C-0.0957180081,55.8756251 -0.142454187,56.8661692 0.307446416,57.6790862 C0.75884707,58.4934078 1.63204833,59 2.58368971,59 L28.4171271,59 C29.3672885,59 30.2419698,58.4934078 30.6918904,57.6790862 C31.1422311,56.8664354 31.0960652,55.8758994 30.5720102,55.1069332 L17.6589915,36.1220633 C17.1744609,35.4181599 16.3641298,34.9973752 15.4981884,35 C14.6309072,35 13.821346,35.4253175 13.3418253,36.1278695 L13.3447853,36.1307726 Z" id="Path" fill="#E81F76"></path>
            <path d="M13.3435183,22.8710948 L0.427975334,3.89165564 C-0.0960620077,3.12296813 -0.142226301,2.13279116 0.308099205,1.32043498 C0.759484631,0.50785961 1.63265644,0 2.58426572,0 L28.4168317,0 C29.366961,0 30.2416128,0.50785961 30.6915182,1.32043498 C31.1429037,2.13446139 31.0955452,3.12261108 30.5716421,3.89310666 L17.659059,22.8710948 C17.1774392,23.5780671 16.3669241,24.0018207 15.4998087,24 C14.6332173,24.0013347 13.8233675,23.5776386 13.3420384,22.8710948 L13.3435183,22.8710948 Z" id="Path" fill="#E81F76" opacity="0.2"></path>
            <path d="M32.3410036,5.12448591 L19.4272917,24.1013252 C18.9035411,24.8717996 18.8579606,25.8632046 19.3088851,26.6767431 C19.76031,27.4907202 20.6365183,27.9985491 21.5882108,28 L47.4156347,28 C48.3648259,27.9996865 49.2379921,27.4909997 49.6920002,26.6738412 C50.1417285,25.8610492 50.0961641,24.8711097 49.5735937,24.1013252 L36.6584016,5.12303497 C36.1746557,4.41910728 35.3647711,3.99792265 34.4989626,4 C33.6316348,4 32.82055,4.4207802 32.3410036,5.12448591 Z" id="Path" fill="#E81F76" opacity="0.4"></path>
            <path d="M36.658894,53.8755214 L49.5735621,34.8972251 C50.0961712,34.1274404 50.141739,33.1375006 49.6919774,32.3247083 C49.2380533,31.5090226 48.3662889,31.001085 47.4184037,31 L21.5890676,31 C20.6358245,31 19.7595513,31.507829 19.3095732,32.3232574 C18.8581746,33.1365302 18.9031883,34.1279277 19.4265083,34.898676 L32.3411764,53.8755214 C32.8207583,54.5777764 33.6319031,55 34.4992951,55 C35.3681673,55 36.1793121,54.5777764 36.658894,53.8755214 L36.658894,53.8755214 Z" id="Path" fill="#E81F76" opacity="0.7"></path>
        </g>
    </g>
</svg>